<svg id="SvgjsSvg1001" width="288" height="288" xmlns="http://www.w3.org/2000/svg" version="1.1" xmlns:xlink="http://www.w3.org/1999/xlink" xmlns:svgjs="http://svgjs.com/svgjs"><rect id="SvgjsRect1018" width="288" height="288" rx="51" ry="51" transform="matrix(0.8399999999999999,0,0,0.8399999999999999,23.04000000000002,23.04000000000002)" fill="#fbbc05"></rect><defs id="SvgjsDefs1002"></defs><g id="SvgjsG1008" transform="matrix(0.6900000000000001,0,0,0.6900000000000001,44.639999999999986,44.639999999999986)"><svg xmlns="http://www.w3.org/2000/svg" enable-background="new 0 0 64 64" viewBox="0 0 64 64" width="288" height="288"><circle cx="32" cy="32" r="32" fill="#ffa45c" class="color76c2af svgShape"></circle><path fill="#23231f" d="M49.9,46.2L35.8,32.1c-1-1-2.5-1.4-3.8-1l-8.1-8l-3-5.9l-5.9-3L12.1,17l3,5.9l5.9,3l0,0l8.1,8
			c-0.4,1.3,0,2.8,1,3.8l14.1,14.1c1.6,1.6,4.1,1.6,5.7,0C51.5,50.3,51.5,47.8,49.9,46.2z" opacity=".2" class="color231f20 svgShape"></path><polygon fill="#5d5d5a" points="34.5 37.3 18.4 21.4 21.3 18.6 37.4 34.5" class="color4f5d73 svgShape"></polygon><path fill="#ffcdab" d="M49.9,49.9c-1.6,1.6-4.1,1.6-5.7,0L30.1,35.8c-1.6-1.6-1.6-4.1,0-5.7l0,0c1.6-1.6,4.1-1.6,5.7,0l14.1,14.1
			C51.5,45.8,51.5,48.3,49.9,49.9L49.9,49.9z" class="colorf5cf87 svgShape"></path><path fill="#23231f" d="M53.3,18.4l-6.5,6.5c-1.6,1.6-4.1,1.6-5.7,0c-1.6-1.6-1.6-4.1,0-5.7l6.5-6.5C46.5,12.3,45.3,12,44,12
			c-5.5,0-10,4.5-10,10c0,1.3,0.3,2.5,0.7,3.6l-11,11C22.5,36.3,21.3,36,20,36c-5.5,0-10,4.5-10,10c0,1.3,0.3,2.5,0.7,3.6l6.5-6.5
			c1.6-1.6,4.1-1.6,5.7,0c1.6,1.6,1.6,4.1,0,5.7l-6.5,6.5c1.1,0.4,2.4,0.7,3.6,0.7c5.5,0,10-4.5,10-10c0-1.3-0.3-2.5-0.7-3.6l11-11
			c1.1,0.4,2.4,0.7,3.6,0.7c5.5,0,10-4.5,10-10C54,20.7,53.7,19.5,53.3,18.4z" opacity=".2" class="color231f20 svgShape"></path><rect width="17.1" height="8" x="23.4" y="28" fill="#fff4e3" transform="rotate(-45.001 32 32)" class="colorfff svgShape"></rect><polygon fill="#5d5d5a" points="21 23.9 15.1 20.9 12.1 15 14.9 12.1 20.8 15.2 23.9 21.1" class="color4f5d73 svgShape"></polygon><path fill="#fff4e3" d="M46.8 22.8c-1.6 1.6-4.1 1.6-5.7 0-1.6-1.6-1.6-4.1 0-5.7l6.5-6.5C46.5 10.3 45.3 10 44 10c-5.5 0-10 4.5-10 10 0 5.5 4.5 10 10 10s10-4.5 10-10c0-1.3-.3-2.5-.7-3.6L46.8 22.8zM17.2 41.2c1.6-1.6 4.1-1.6 5.7 0 1.6 1.6 1.6 4.1 0 5.7l-6.5 6.5c1.1.4 2.4.7 3.6.7 5.5 0 10-4.5 10-10 0-5.5-4.5-10-10-10s-10 4.5-10 10c0 1.3.3 2.5.7 3.6L17.2 41.2z" class="colorfff svgShape"></path></svg></g></svg>